<?xml version="1.0" encoding="UTF-8" standalone="no"?>
<!-- Created with Inkscape (http://www.inkscape.org/) -->

<svg
   xmlns:dc="http://purl.org/dc/elements/1.1/"
   xmlns:cc="http://creativecommons.org/ns#"
   xmlns:rdf="http://www.w3.org/1999/02/22-rdf-syntax-ns#"
   xmlns:svg="http://www.w3.org/2000/svg"
   xmlns="http://www.w3.org/2000/svg"
   xmlns:xlink="http://www.w3.org/1999/xlink"
   xmlns:sodipodi="http://sodipodi.sourceforge.net/DTD/sodipodi-0.dtd"
   xmlns:inkscape="http://www.inkscape.org/namespaces/inkscape"
   version="1.1"
   id="svg2"
   width="1973"
   height="196"
   viewBox="0 0 1973 196"
   sodipodi:docname="irrilagAboutBanner.svg"
   inkscape:export-filename="/home/cyber_runner/Documents/WorkFlow/irrilagAboutBannerFR.png"
   inkscape:export-xdpi="96"
   inkscape:export-ydpi="96"
   inkscape:version="0.92.5 (2060ec1f9f, 2020-04-08)">
  <metadata
     id="metadata8">
    <rdf:RDF>
      <cc:Work
         rdf:about="">
        <dc:format>image/svg+xml</dc:format>
        <dc:type
           rdf:resource="http://purl.org/dc/dcmitype/StillImage" />
      </cc:Work>
    </rdf:RDF>
  </metadata>
  <defs
     id="defs6">
    <linearGradient
       inkscape:collect="always"
       id="linearGradient13453">
      <stop
         style="stop-color:#a9ddf1;stop-opacity:1;"
         offset="0"
         id="stop13449" />
      <stop
         style="stop-color:#a9ddf1;stop-opacity:0;"
         offset="1"
         id="stop13451" />
    </linearGradient>
    <clipPath
       clipPathUnits="userSpaceOnUse"
       id="clipPath6571">
      <path
         d="M 0,792 H 612 V 0 H 0 Z"
         id="path6569"
         inkscape:connector-curvature="0" />
    </clipPath>
    <clipPath
       clipPathUnits="userSpaceOnUse"
       id="clipPath6539">
      <path
         d="M 0,792 H 612 V 0 H 0 Z"
         id="path6537"
         inkscape:connector-curvature="0" />
    </clipPath>
    <clipPath
       clipPathUnits="userSpaceOnUse"
       id="clipPath6527">
      <path
         d="M 0,507.569 H 237.86 V 575.07 H 0 Z"
         id="path6525"
         inkscape:connector-curvature="0" />
    </clipPath>
    <clipPath
       clipPathUnits="userSpaceOnUse"
       id="clipPath6477">
      <path
         d="M 0,792 H 612 V 0 H 0 Z"
         id="path6475"
         inkscape:connector-curvature="0" />
    </clipPath>
    <linearGradient
       inkscape:collect="always"
       xlink:href="#linearGradient13453"
       id="linearGradient13455"
       x1="464.28363"
       y1="1149.1783"
       x2="247.62839"
       y2="1150.3289"
       gradientUnits="userSpaceOnUse"
       gradientTransform="matrix(0.66904509,0,0,1,67.791401,173.61519)" />
    <linearGradient
       inkscape:collect="always"
       xlink:href="#linearGradient13453"
       id="linearGradient13459"
       gradientUnits="userSpaceOnUse"
       gradientTransform="matrix(0.66904509,0,0,1,-911.37918,-2457.7693)"
       x1="464.28363"
       y1="1149.1783"
       x2="142.99199"
       y2="1144.6095" />
    <clipPath
       clipPathUnits="userSpaceOnUse"
       id="clipPath13490">
      <rect
         style="opacity:0.59200003;fill:#ffffff;fill-opacity:1;stroke:#a9ddf1;stroke-width:0;stroke-miterlimit:4;stroke-dasharray:none;stroke-opacity:1"
         id="rect13492"
         width="331.14453"
         height="99.345505"
         x="-5.8849001"
         y="-733.21326"
         transform="scale(1,-1)" />
    </clipPath>
  </defs>
  <sodipodi:namedview
     pagecolor="#ffffff"
     bordercolor="#666666"
     borderopacity="1"
     objecttolerance="10"
     gridtolerance="10"
     guidetolerance="10"
     inkscape:pageopacity="0"
     inkscape:pageshadow="2"
     inkscape:window-width="1920"
     inkscape:window-height="1043"
     id="namedview4"
     showgrid="false"
     inkscape:zoom="0.70349721"
     inkscape:cx="677.15588"
     inkscape:cy="191.01753"
     inkscape:window-x="0"
     inkscape:window-y="0"
     inkscape:window-maximized="1"
     inkscape:current-layer="svg2" />
  <rect
     style="opacity:0.59200003;fill:#ffffff;fill-opacity:0.11217949;stroke:#ffffff;stroke-width:0;stroke-miterlimit:4;stroke-dasharray:none;stroke-opacity:1"
     id="rect13570"
     width="1968.1554"
     height="170.57635"
     x="1.4214699"
     y="13.125032" />
  <g
     id="g11620"
     transform="matrix(1.866744,0,0,1.866744,-325.11873,-2033.0885)">
    <g
       id="g13463"
       transform="translate(-9.8991241,-173.61527)">
      <rect
         y="1270.2522"
         x="184.82413"
         height="90.879921"
         width="389.4574"
         id="rect13431"
         style="opacity:1;fill:url(#linearGradient13455);fill-opacity:1;stroke:#a9ddf1;stroke-width:0;stroke-miterlimit:4;stroke-dasharray:none;stroke-opacity:1" />
      <rect
         transform="scale(-1)"
         style="opacity:1;fill:url(#linearGradient13459);fill-opacity:1;stroke:#a9ddf1;stroke-width:0;stroke-miterlimit:4;stroke-dasharray:none;stroke-opacity:1"
         id="rect13457"
         width="389.4574"
         height="90.879921"
         x="-794.34644"
         y="-1361.1322" />
    </g>
    <g
       id="g11859"
       transform="matrix(0.80761647,0,0,0.80761647,109.71139,214.74481)"
       style="fill:#005cb9;fill-opacity:1">
      <text
         y="1157.1198"
         x="709.05383"
         style="font-variant:normal;font-weight:bold;font-stretch:normal;font-size:19.91497612px;font-family:AvantGarde;-inkscape-font-specification:AvantGarde-Demi;writing-mode:lr-tb;fill:#005cb9;fill-opacity:1;fill-rule:nonzero;stroke:none;stroke-width:1.65958118"
         id="text6563-2">
        <tspan
           x="709.05383"
           y="1157.1198"
           style="fill:#005cb9;fill-opacity:1;stroke-width:1.65958118"
           sodipodi:role="line"
           id="tspan6561-9">&amp;</tspan>
      </text>
      <text
         y="1179.9637"
         x="579.60388"
         style="font-variant:normal;font-weight:bold;font-stretch:normal;font-size:19.91497612px;font-family:AvantGarde;-inkscape-font-specification:AvantGarde-Demi;writing-mode:lr-tb;fill:#005cb9;fill-opacity:1;fill-rule:nonzero;stroke:none;stroke-width:1.65958118"
         id="text6563-36">
        <tspan
           x="579.60388"
           y="1179.9637"
           style="fill:#005cb9;fill-opacity:1;stroke-width:1.65958118"
           sodipodi:role="line"
           id="tspan6561-2">antibactérien</tspan>
      </text>
      <text
         y="1157.1196"
         x="579.60388"
         style="font-variant:normal;font-weight:bold;font-stretch:normal;font-size:19.91497612px;font-family:AvantGarde;-inkscape-font-specification:AvantGarde-Demi;writing-mode:lr-tb;fill:#005cb9;fill-opacity:1;fill-rule:nonzero;stroke:none;stroke-width:1.65958118"
         id="text6563-9">
        <tspan
           x="579.60388"
           y="1157.1196"
           style="fill:#005cb9;fill-opacity:1;stroke-width:1.65958118"
           sodipodi:role="line"
           id="tspan6561-3">antiseptique</tspan>
        <tspan
           id="tspan11733"
           x="579.60388"
           y="1182.4269"
           style="fill:#005cb9;fill-opacity:1;stroke-width:1.65958118"
           sodipodi:role="line" />
      </text>
      <g
         transform="translate(-0.7614701,3.0458804)"
         id="g11748"
         style="fill:#005cb9;fill-opacity:1">
        <text
           id="text6563"
           style="font-variant:normal;font-weight:bold;font-stretch:normal;font-size:19.91497612px;font-family:AvantGarde;-inkscape-font-specification:AvantGarde-Demi;writing-mode:lr-tb;fill:#005cb9;fill-opacity:1;fill-rule:nonzero;stroke:none;stroke-width:1.65958118"
           x="578.35461"
           y="1132.3938">
          <tspan
             id="tspan6561"
             sodipodi:role="line"
             style="fill:#005cb9;fill-opacity:1;stroke-width:1.65958118"
             y="1132.3938"
             x="578.35461">Gel</tspan>
        </text>
        <text
           id="text6563-6"
           style="font-variant:normal;font-weight:bold;font-stretch:normal;font-size:19.91497612px;font-family:AvantGarde;-inkscape-font-specification:AvantGarde-Demi;writing-mode:lr-tb;fill:#005cb9;fill-opacity:1;fill-rule:nonzero;stroke:none;stroke-width:1.65958118"
           x="702.96204"
           y="1089.3489">
          <tspan
             id="tspan6559-8"
             sodipodi:role="line"
             style="fill:#005cb9;fill-opacity:1;stroke-width:1.65958118"
             y="1106.969"
             x="702.96204" />
          <tspan
             id="tspan6561-7"
             sodipodi:role="line"
             style="fill:#005cb9;fill-opacity:1;stroke-width:1.65958118"
             y="1131.8627"
             x="702.96204">soins</tspan>
        </text>
        <text
           id="text6563-7"
           style="font-variant:normal;font-weight:bold;font-stretch:normal;font-size:19.91497612px;font-family:AvantGarde;-inkscape-font-specification:AvantGarde-Demi;writing-mode:lr-tb;fill:#005cb9;fill-opacity:1;fill-rule:nonzero;stroke:none;stroke-width:1.65958118"
           x="616.91595"
           y="1089.3489">
          <tspan
             id="tspan6557-5"
             sodipodi:role="line"
             style="fill:#005cb9;fill-opacity:1;stroke-width:1.65958118"
             y="1106.969"
             x="616.91595" />
          <tspan
             id="tspan6559-92"
             sodipodi:role="line"
             style="fill:#005cb9;fill-opacity:1;stroke-width:1.65958118"
             y="1131.8627"
             x="616.91595">premiers</tspan>
          <tspan
             id="tspan6561-28"
             sodipodi:role="line"
             style="fill:#005cb9;fill-opacity:1;stroke-width:1.65958118"
             y="1157.1699"
             x="616.91595" />
        </text>
      </g>
    </g>
    <g
       id="g13480"
       transform="matrix(0.84343584,0,0,0.84343584,85.911079,172.61403)">
      <g
         transform="matrix(1.3333333,0,0,-1.3333333,449.81572,1872.987)"
         id="g6533">
        <g
           id="g6535"
           clip-path="url(#clipPath6539)">
          <g
             id="g6541"
             transform="translate(52.3306,515.9316)">
            <path
               d="m 0,0 c -14.013,0 -25.413,11.4 -25.413,25.413 0,14.013 11.4,25.413 25.413,25.413 14.013,0 25.413,-11.4 25.413,-25.413 C 25.413,11.4 14.013,0 0,0"
               style="fill:#ffffff;fill-opacity:1;fill-rule:nonzero;stroke:none"
               id="path6543"
               inkscape:connector-curvature="0" />
          </g>
          <g
             id="g6545"
             transform="translate(52.3306,515.7769)">
            <path
               d="m 0,0 c -14.098,0 -25.567,11.47 -25.567,25.568 0,14.098 11.469,25.567 25.567,25.567 14.098,0 25.568,-11.469 25.568,-25.567 C 25.568,11.47 14.098,0 0,0 m 0,47.89 c -12.309,0 -22.323,-10.014 -22.323,-22.322 0,-12.309 10.014,-22.323 22.323,-22.323 12.309,0 22.323,10.014 22.323,22.323 C 22.323,37.876 12.309,47.89 0,47.89"
               style="fill:#005cb9;fill-opacity:1;fill-rule:nonzero;stroke:none"
               id="path6547"
               inkscape:connector-curvature="0" />
          </g>
          <g
             id="g6549"
             transform="translate(91.1548,559.3271)">
            <path
               d="M 0,0 V -38.589"
               style="fill:none;stroke:#ffffff;stroke-width:2.5;stroke-linecap:round;stroke-linejoin:round;stroke-miterlimit:10;stroke-dasharray:0, 5.145;stroke-dashoffset:0;stroke-opacity:1"
               id="path6551"
               inkscape:connector-curvature="0" />
          </g>
          <g
             id="g6553"
             transform="translate(91.1548,564.4727)">
            <path
               d="m 0,0 v 0 m 0,-46.307 v 0"
               style="fill:none;stroke:#ffffff;stroke-width:2.5;stroke-linecap:round;stroke-linejoin:round;stroke-miterlimit:10;stroke-dasharray:none;stroke-opacity:1"
               id="path6555"
               inkscape:connector-curvature="0" />
          </g>
        </g>
      </g>
      <g
         style="fill:#005cb9;fill-opacity:1"
         transform="matrix(0.55948807,0,0,0.55948807,303.13917,379.08765)"
         id="g11762">
        <rect
           y="-421.25177"
           x="1368.1097"
           height="67.753242"
           width="25.110909"
           id="rect11756"
           style="opacity:1;fill:#005cb9;fill-opacity:1;stroke:#1d5fad;stroke-width:1.39086533;stroke-miterlimit:4;stroke-dasharray:none;stroke-opacity:1"
           transform="rotate(90)" />
        <rect
           transform="scale(-1)"
           style="opacity:1;fill:#005cb9;fill-opacity:1;stroke:#1d5fad;stroke-width:1.39086533;stroke-miterlimit:4;stroke-dasharray:none;stroke-opacity:1"
           id="rect11758"
           width="25.110909"
           height="67.753242"
           x="-399.16916"
           y="-1413.019" />
      </g>
    </g>
    <g
       transform="matrix(0.77953379,0,0,-0.78948168,141.43903,1687.2809)"
       id="g6471"
       clip-path="url(#clipPath13490)"
       style="fill:#005cb9;fill-opacity:1">
      <g
         id="g6473"
         clip-path="url(#clipPath6477)"
         style="fill:#005cb9;fill-opacity:1">
        <g
           id="g6479"
           transform="translate(46.9409,711.6753)"
           style="fill:#005cb9;fill-opacity:1">
          <path
             d="m 0,0 c 0,2.986 2.356,5.35 5.348,5.35 2.986,0 5.353,-2.364 5.353,-5.35 v -38.775 c 0,-2.99 -2.367,-5.351 -5.353,-5.351 -2.992,0 -5.348,2.361 -5.348,5.351 z"
             style="fill:#005cb9;fill-opacity:1;fill-rule:nonzero;stroke:none"
             id="path6481"
             inkscape:connector-curvature="0" />
        </g>
        <g
           id="g6483"
           transform="translate(87.8701,692.9819)"
           style="fill:#005cb9;fill-opacity:1">
          <path
             d="m 0,0 c 5.209,0 8.197,2.778 8.197,6.878 v 0.14 c 0,4.586 -3.196,6.947 -8.41,6.947 h -10.63 V 0 Z m -21.544,18.276 c 0,2.988 2.364,5.35 5.351,5.35 H 0.694 c 6.185,0 10.976,-1.737 14.173,-4.933 2.71,-2.711 4.168,-6.534 4.168,-11.119 V 7.436 c 0,-7.646 -3.819,-12.37 -9.728,-14.803 l 7.435,-9.032 c 1.046,-1.321 1.739,-2.433 1.739,-4.101 0,-2.989 -2.5,-4.933 -5.07,-4.933 -2.433,0 -4.035,1.18 -5.282,2.779 L -2.297,-9.452 h -8.546 v -10.63 c 0,-2.989 -2.365,-5.351 -5.35,-5.351 -2.987,0 -5.351,2.362 -5.351,5.351 z"
             style="fill:#005cb9;fill-opacity:1;fill-rule:nonzero;stroke:none"
             id="path6485"
             inkscape:connector-curvature="0" />
        </g>
        <g
           id="g6487"
           transform="translate(134.6367,692.9819)"
           style="fill:#005cb9;fill-opacity:1">
          <path
             d="m 0,0 c 5.21,0 8.196,2.778 8.196,6.878 v 0.14 c 0,4.586 -3.193,6.947 -8.404,6.947 H -10.842 V 0 Z m -21.543,18.276 c 0,2.988 2.367,5.35 5.352,5.35 H 0.697 c 6.182,0 10.978,-1.737 14.175,-4.933 2.709,-2.711 4.168,-6.534 4.168,-11.119 V 7.436 c 0,-7.646 -3.825,-12.37 -9.726,-14.803 l 7.429,-9.032 c 1.046,-1.321 1.74,-2.433 1.74,-4.101 0,-2.989 -2.502,-4.933 -5.072,-4.933 -2.43,0 -4.028,1.18 -5.281,2.779 L -2.292,-9.452 h -8.55 v -10.63 c 0,-2.989 -2.36,-5.351 -5.349,-5.351 -2.985,0 -5.352,2.362 -5.352,5.351 z"
             style="fill:#005cb9;fill-opacity:1;fill-rule:nonzero;stroke:none"
             id="path6489"
             inkscape:connector-curvature="0" />
        </g>
        <g
           id="g6491"
           transform="translate(160.3516,711.6753)"
           style="fill:#005cb9;fill-opacity:1">
          <path
             d="M 0,0 C 0,2.986 2.358,5.35 5.349,5.35 8.337,5.35 10.7,2.986 10.7,0 v -38.775 c 0,-2.99 -2.363,-5.351 -5.351,-5.351 -2.991,0 -5.349,2.361 -5.349,5.351 z"
             style="fill:#005cb9;fill-opacity:1;fill-rule:nonzero;stroke:none"
             id="path6493"
             inkscape:connector-curvature="0" />
        </g>
        <g
           id="g6495"
           transform="translate(179.7358,711.6753)"
           style="fill:#005cb9;fill-opacity:1">
          <path
             d="M 0,0 C 0,2.986 2.364,5.35 5.351,5.35 8.34,5.35 10.702,2.986 10.702,0 v -33.983 h 19.803 c 2.711,0 4.866,-2.152 4.866,-4.864 0,-2.708 -2.155,-4.865 -4.866,-4.865 H 5.351 C 2.364,-43.712 0,-41.347 0,-38.361 Z"
             style="fill:#005cb9;fill-opacity:1;fill-rule:nonzero;stroke:none"
             id="path6497"
             inkscape:connector-curvature="0" />
        </g>
        <g
           id="g6499"
           transform="translate(312.4326,629.9731)"
           style="fill:#005cb9;fill-opacity:1">
          <path
             d="m 0,0 -14.414,-21.803 h -96.047 L -96.052,0"
             style="fill:#005cb9;fill-opacity:1;fill-rule:nonzero;stroke:none"
             id="path6501"
             inkscape:connector-curvature="0" />
        </g>
        <g
           id="g6503"
           transform="translate(233.1816,688.3252)"
           style="fill:#005cb9;fill-opacity:1">
          <path
             d="M 0,0 H 13.48 L 6.736,16.053 Z"
             style="fill:#005cb9;fill-opacity:1;fill-rule:nonzero;stroke:none"
             id="path6505"
             inkscape:connector-curvature="0" />
        </g>
        <g
           id="g6507"
           transform="translate(285.1572,697.1484)"
           style="fill:#005cb9;fill-opacity:1">
          <path
             d="m 0,0 c -5.141,0 -9.034,-3.544 -9.034,-8.615 v -0.139 c 0,-5.142 3.893,-8.616 9.034,-8.616 5.142,0 9.102,3.544 9.102,8.616 v 0.139 C 9.102,-3.544 5.142,0 0,0"
             style="fill:#005cb9;fill-opacity:1;fill-rule:nonzero;stroke:none"
             id="path6509"
             inkscape:connector-curvature="0" />
        </g>
        <g
           id="g6511"
           transform="translate(304.6875,676.3735)"
           style="fill:#005cb9;fill-opacity:1">
          <path
             d="m 0,0 c 0,-6.672 -1.604,-11.535 -4.728,-14.663 -3.476,-3.474 -8.826,-5.002 -16.052,-5.002 -4.935,0 -9.244,0.835 -13.625,2.571 -1.803,0.693 -2.981,2.151 -2.981,4.098 0,2.365 1.943,4.311 4.306,4.311 0.694,0 1.25,-0.14 1.738,-0.348 3.056,-1.388 6.322,-2.226 10.283,-2.226 7.226,0 10.63,3.477 10.63,10.148 v 1.807 c -3.125,-3.755 -6.528,-6.047 -12.159,-6.047 -8.682,0 -16.538,6.325 -16.538,17.372 v 0.139 c 0,11.121 7.994,17.372 16.538,17.372 5.766,0 9.175,-2.432 12.023,-5.559 v 0.071 c 0,2.85 2.361,5.211 5.283,5.211 C -2.368,29.255 0,26.894 0,23.973 Z M -88.307,49.651 V -2.022 c 0.068,0.164 0.117,0.332 0.188,0.495 l 16.955,38.287 c 1.185,2.639 3.34,4.239 6.257,4.239 h 0.628 c 2.915,0 4.999,-1.6 6.184,-4.239 L -41.14,-1.527 c 0.346,-0.766 0.553,-1.461 0.553,-2.154 0,-2.853 -2.221,-5.144 -5.071,-5.144 -2.502,0 -4.173,1.461 -5.14,3.684 l -3.269,7.643 h -21.401 l -3.406,-7.992 c -0.904,-2.086 -2.71,-3.335 -4.935,-3.335 -2.04,0 -3.739,1.206 -4.498,2.947 V -46.4 H 7.745 v 96.051 z"
             style="fill:#005cb9;fill-opacity:1;fill-rule:nonzero;stroke:none"
             id="path6513"
             inkscape:connector-curvature="0" />
        </g>
      </g>
    </g>
  </g>
</svg>
